<svg width="169" height="169" viewBox="0 0 169 169" fill="none" xmlns="http://www.w3.org/2000/svg">
<g clip-path="url(#clip0_6383_2279)">
<path d="M0 56.1056C0 9.90451 9.90451 0 56.1056 0H112.889C159.095 0 168.995 9.90451 168.995 56.1056V112.889C168.995 159.095 159.091 168.995 112.889 168.995H56.1056C9.90451 169 0 159.095 0 112.889V56.1056Z" fill="#4453F7"/>
<path d="M127.976 109.693L83.4951 40.1616L36.8003 103.698L50.6995 125.412L127.976 109.698V109.693Z" fill="#DEBFBF"/>
<path d="M90.9879 28.1084L80.1812 35.0275L131.28 114.837L142.087 107.918L90.9879 28.1084Z" fill="#FFE3E3"/>
<path d="M34.222 99.5712L23.4153 106.49L42.4866 136.277L53.2933 129.358L34.222 99.5712Z" fill="#FFE3E3"/>
<path d="M97.9728 115.777C99.8131 119.742 98.4317 124.46 94.7362 126.804V126.794C90.6866 129.382 85.3054 128.2 82.7121 124.155L79.7597 119.472L66.9477 122.076C67.0624 122.275 67.1671 122.485 67.2868 122.684L72.5184 130.709C76.2089 136.329 82.383 139.82 89.0957 140.089C95.8134 140.359 102.247 137.371 106.381 132.065C110.511 126.759 111.822 119.792 109.917 113.348L97.9778 115.772L97.9728 115.777Z" fill="#22232E"/>
<path d="M90.911 51.7169L53.4125 102.721L98.0127 62.8034L90.911 51.7169Z" fill="white"/>
<path d="M127.976 109.693L98.0127 62.8033L119.438 111.428L127.976 109.693Z" fill="#22232E"/>
</g>
<defs>
<clipPath id="clip0_6383_2279">
<rect width="169" height="169" fill="white"/>
</clipPath>
</defs>
</svg>
