<svg xmlns="http://www.w3.org/2000/svg" width="49" height="46" fill="none" viewBox="0 0 49 46"><path fill="#C5D0D9" d="M49 32.78 27.904 0l-4.46 2.841 1.36 2.115-19.262 26.07-1.077-1.675-4.46 2.841 7.872 12.234 4.46-2.841-1.047-1.63 6.693-1.352c.047.08.09.161.136.242l2.16 3.297a8.604 8.604 0 0 0 6.847 3.854 8.624 8.624 0 0 0 7.137-3.297 8.537 8.537 0 0 0 1.463-7.682l3.934-.796 3.524-.714 1.364 2.118 4.46-2.841-.008-.005Zm-36.611-2.14L27.874 9.69l2.93 4.556L12.389 30.64Zm17.063 9.894a3.611 3.611 0 0 1-4.965-1.089l-1.214-1.914 7.518-1.523a3.572 3.572 0 0 1-1.339 4.526Z"/></svg>